<?xml version="1.0" encoding="utf-8"?>
<!-- Generator: Adobe Illustrator 16.0.4, SVG Export Plug-In . SVG Version: 6.00 Build 0)  -->
<!DOCTYPE svg PUBLIC "-//W3C//DTD SVG 1.1//EN" "http://www.w3.org/Graphics/SVG/1.1/DTD/svg11.dtd">
<svg version="1.1" xmlns="http://www.w3.org/2000/svg" xmlns:xlink="http://www.w3.org/1999/xlink" x="0px" y="0px"
	 width="1144.503px" height="161px" viewBox="0 0 1144.503 161" enable-background="new 0 0 1144.503 161" xml:space="preserve">
<g id="Layer_1">
	<g>
		<g>
			<g>
				<path fill="#FFFFFF" d="M358.395,28.321h21.76v86.548h47.858v19.115h-69.618V28.321z"/>
				<path fill="#FFFFFF" d="M453.804,28.321h21.757v105.663h-21.757V28.321z"/>
				<path fill="#FFFFFF" d="M505.704,28.321h40.867c19.737,0,30.768,12.429,30.768,27.346c0,9.794-5.748,16.479-14.919,19.428
					c14.457,3.417,21.442,13.055,21.442,26.264c0,18.797-13.356,32.626-35.433,32.626h-42.726V28.321z M544.242,67.325
					c6.991,0,11.65-3.886,11.65-9.947c0-6.056-3.885-9.944-10.562-9.944h-17.868v19.891H544.242z M547.503,114.869
					c8.858,0,14.452-5.901,14.452-14.596c0-8.549-5.75-14.459-15.693-14.459h-18.8v29.055H547.503z"/>
				<path fill="#FFFFFF" d="M686.265,133.984h-25.178l-17.404-26.727c-2.019,0.308-4.188,0.472-6.206,0.472h-7.458v26.255H608.25
					V28.321h29.227c29.522,0,47.231,14.142,47.231,39.931c0,16.475-7.304,26.889-20.354,32.789L686.265,133.984z M636.853,88.763
					c17.72,0,25.484-5.586,25.484-20.511c0-14.912-8.082-20.818-25.484-20.818h-6.834v41.329H636.853z"/>
				<path fill="#FFFFFF" d="M749.354,27.392h1.864l48.329,106.593h-22.842l-4.97-11.965h-42.889l-4.966,11.965h-20.992
					L749.354,27.392z M763.962,103.838l-7.611-18.331c-3.104-7.458-6.373-18.961-6.373-18.961s-3.11,11.503-6.216,18.961
					l-7.612,18.331H763.962z"/>
				<path fill="#FFFFFF" d="M899.612,133.984h-25.177l-17.403-26.727c-2.018,0.308-4.189,0.472-6.208,0.472h-7.457v26.255h-21.756
					V28.321h29.213c29.522,0,47.234,14.142,47.234,39.931c0,16.475-7.295,26.889-20.354,32.789L899.612,133.984z M850.201,88.763
					c17.709,0,25.484-5.586,25.484-20.511c0-14.912-8.081-20.818-25.484-20.818h-6.834v41.329H850.201z"/>
				<path fill="#FFFFFF" d="M925.253,28.321h21.758v105.663h-21.758V28.321z"/>
				<path fill="#FFFFFF" d="M977.157,28.321h69.921v19.113h-48.176v33.557h42.43v18.655h-42.43v15.223h50.358v19.115h-72.104V28.321
					z"/>
				<path fill="#FFFFFF" d="M1068.835,113.156l17.711-10.251c4.661,7.61,10.725,13.204,21.45,13.204
					c9.004,0,14.761-4.496,14.761-10.716c0-7.445-5.91-10.101-15.856-14.447l-5.441-2.33c-15.68-6.684-26.1-15.073-26.1-32.792
					c0-16.312,12.437-28.746,31.858-28.746c13.831,0,23.773,4.817,30.925,17.407l-16.944,10.876
					c-3.727-6.681-7.772-9.324-13.98-9.324c-6.372,0-10.418,4.041-10.418,9.324c0,6.525,4.046,9.167,13.357,13.209l5.45,2.329
					c18.488,7.924,28.896,16.007,28.896,34.188c0,19.573-15.375,30.301-36.047,30.301
					C1088.257,135.388,1075.207,125.746,1068.835,113.156z"/>
			</g>
			<g>
				<g>
					<g>
						<g>
							<path fill="#FFCC33" d="M286.931,146.363c0.849,0.33,1.587,0.79,2.183,1.404c0.615,0.614,1.104,1.262,1.44,1.996
								c0.456,0.921,0.675,1.943,0.675,3.005c0,1.205-0.309,2.37-0.901,3.452c-0.604,1.098-1.455,1.955-2.548,2.559
								c-1.051,0.601-2.229,0.92-3.398,0.92c-1.189,0-2.321-0.319-3.398-0.92c-1.075-0.604-1.94-1.461-2.539-2.559
								c-0.617-1.082-0.923-2.247-0.923-3.452c0-1.02,0.198-1.974,0.605-2.807c0.382-0.856,0.868-1.569,1.474-2.16
								c0.615-0.572,1.253-1.011,1.954-1.329c0.916-0.417,1.868-0.613,2.827-0.613C285.238,145.859,286.095,146.024,286.931,146.363
								z M291.777,149.391c-0.371-0.833-0.888-1.589-1.56-2.29c-0.694-0.702-1.546-1.286-2.556-1.756
								c-0.97-0.473-2.08-0.703-3.281-0.703c-1.229,0-2.413,0.263-3.528,0.812c-0.805,0.385-1.564,0.921-2.245,1.602
								c-0.684,0.658-1.249,1.503-1.695,2.5c-0.43,0.999-0.652,2.062-0.652,3.214c0,1.414,0.374,2.773,1.082,4.059
								c0.732,1.292,1.7,2.291,3.012,3.004c1.27,0.712,2.615,1.074,4.027,1.074c1.25,0,2.43-0.263,3.542-0.812
								c0.875-0.417,1.649-0.984,2.36-1.698c0.693-0.735,1.233-1.592,1.649-2.589c0.378-0.987,0.564-1.996,0.564-3.038
								C292.497,151.608,292.265,150.489,291.777,149.391z M284.103,153.92c0.513,0,0.896,0.076,1.189,0.218
								c0.259,0.144,0.46,0.33,0.561,0.583c0.133,0.23,0.197,0.615,0.236,1.161c0.039,0.758,0.098,1.229,0.158,1.362h1.908
								c-0.087-0.253-0.138-0.648-0.157-1.197c0-0.535-0.044-0.921-0.075-1.139c-0.08-0.363-0.226-0.671-0.362-0.912
								c-0.193-0.229-0.353-0.427-0.63-0.558c-0.238-0.133-0.566-0.242-0.99-0.342c0.484-0.042,0.808-0.13,0.99-0.229
								c0.389-0.165,0.65-0.44,0.882-0.787c0.23-0.353,0.324-0.748,0.324-1.198c0-0.472-0.094-0.877-0.305-1.217
								c-0.216-0.353-0.481-0.636-0.797-0.845c-0.307-0.219-0.729-0.373-1.242-0.47c-0.372-0.065-0.909-0.078-1.609-0.078h-3.226
								v8.972h2.011v-3.324H284.103z M285.176,149.786c0.294,0.075,0.527,0.251,0.721,0.46c0.153,0.22,0.259,0.483,0.259,0.79
								c0,0.296-0.08,0.536-0.234,0.778c-0.165,0.229-0.37,0.415-0.683,0.524c-0.301,0.111-0.595,0.166-0.929,0.166h-1.341v-2.852
								h1.341C284.567,149.653,284.847,149.688,285.176,149.786z"/>
						</g>
						<polygon fill="#FFCC33" points="253.533,119.836 206.135,41.043 219.195,41.043 219.195,-0.014 140.283,-0.014 
							140.283,41.043 153.328,41.043 135.208,71.15 117.126,41.043 130.199,41.043 130.199,-0.014 51.292,-0.014 51.292,41.043 
							64.32,41.043 16.918,119.836 0,119.836 0,160.905 80.479,160.905 80.479,119.836 66.036,119.836 90.724,78.784 100.29,94.715 
							91.122,94.715 91.122,135.76 179.354,135.76 179.354,94.715 170.155,94.715 179.758,78.784 204.432,119.836 189.99,119.836 
							189.99,160.905 270.453,160.905 270.453,119.836 						"/>
					</g>
				</g>
			</g>
		</g>
	</g>
</g>
<g id="Layer_2">
</g>
</svg>
